<svg xmlns="http://www.w3.org/2000/svg" viewBox="0 0 601.43 308.77"><defs><style>.cls-1{fill:#67ddff;}.cls-2{fill:#fa9474;}.cls-3,.cls-4{fill:none;stroke:#67ddff;stroke-linecap:round;stroke-miterlimit:10;}.cls-3{stroke-width:6px;}.cls-4{stroke-width:7px;}</style></defs><g id="Layer_2" data-name="Layer 2"><g id="Layer_3" data-name="Layer 3"><polygon class="cls-1" points="463.71 304.27 451.98 289.62 391.28 243.26 381.84 245.02 457.77 301.66 445.88 296.83 376.2 246.08 372.15 246.83 444.26 299.36 467.3 308.76 463.71 304.27"/><path class="cls-1" d="M194.37,113.64,169,95.15a31.34,31.34,0,0,0,3.32-3.3,20.67,20.67,0,0,0,1.57-1.92s0,0,0,0l28.54,21.29,11.43-3.47L178.64,80.82c.31-.91.57-1.83.79-2.76A32.15,32.15,0,0,0,180,66.31c0-.11,0-.23,0-.36A32.22,32.22,0,0,0,167.3,44.74l-.94-.71a41.86,41.86,0,0,0-16.73-30c-13-9.68-31.76-9.45-41.71-3.69-7.34,4.25-8.63,3.72-10.63,2.23-.85-.63-1.18-1.35-.93-2a9.09,9.09,0,0,1,1.18-.6,7.31,7.31,0,0,0,3.37-2.43c1.39-2.27,1.14-4.72-.69-6.3-.87-.76-2.7-2.34-6.17.09A9.7,9.7,0,0,0,89.7,8.48a11.56,11.56,0,0,0,.49,4.39L90,12.72a7,7,0,0,0-.61-.34c-3.23-1.66-9.67-2.69-14.48,3.75-.26.36-.52.74-.77,1.16a11.09,11.09,0,0,0,1.8,14.28l.52.47.7-.1c5.73-.84,8.83-.6,15.39,5.05a.86.86,0,0,0,0,.16,2.09,2.09,0,0,0,.83,1.4l2.63,2a2.13,2.13,0,0,0,1.27.42,2.3,2.3,0,0,0,.45,0,14.21,14.21,0,0,0,3.82,4.84,22.84,22.84,0,0,0,4.4,2.57A22.85,22.85,0,0,0,114,54.34a22.47,22.47,0,0,0,3.72,3.49,22.13,22.13,0,0,0,4.41,2.57,22.11,22.11,0,0,0,3.72,3.49,21.78,21.78,0,0,0,4.4,2.57A22.52,22.52,0,0,0,134,70a22.84,22.84,0,0,0,4.4,2.57A22.4,22.4,0,0,0,142.11,76L127.46,95.64a57.22,57.22,0,0,0,4.93,3.23,32.89,32.89,0,0,0,5,2.26,32.2,32.2,0,0,0,5.3,1.36,31.4,31.4,0,0,0,5.21.43,32.81,32.81,0,0,0,4.72-.35,32,32,0,0,0,13.88-5.51l24.25,17.67ZM135.18,10.57a35.59,35.59,0,0,1,12.66,5.81A38.87,38.87,0,0,1,163.5,47.32l-3.6,4.83a35.6,35.6,0,0,0-14-33.11,32.46,32.46,0,0,0-11.09-5.17,4.42,4.42,0,0,0,.41-3.3ZM92.69,8.75a6.64,6.64,0,0,1,2.9-4.86A1.33,1.33,0,0,0,96,5.46,1.35,1.35,0,1,0,97.63,3.3,1.37,1.37,0,0,0,97,3.06c.55-.15.84.09,1.27.47.9.77.33,1.94,0,2.4a5.49,5.49,0,0,1-2.06,1.28A4.87,4.87,0,0,0,93.73,9.1C93,10.61,93,13,95.5,14.93c3.61,2.69,6.47,2.27,13.92-2a30.1,30.1,0,0,1,13-3.49,3.48,3.48,0,0,0-.3,1.24,3.74,3.74,0,0,0,.4,1.84c-5.13.13-9.72,1.14-12.75,2.72-7.07,3.67-10.69,4.52-14.82.31A9.5,9.5,0,0,1,92.69,8.75Zm.13,8.85c5.87,6,11.78,3.65,18.34.25,6.91-3.59,22.77-4,32.9,3.6a32.57,32.57,0,0,1,11.38,36.68h0l-4.16,5.57h0c-.3-.16-.6-.3-.91-.44a23.31,23.31,0,0,0-3.49-3.22l-.35-.25-.23-.18a21.58,21.58,0,0,0-4.08-2.42A22.2,22.2,0,0,0,138.75,54l-.26-.19-.31-.24a22.13,22.13,0,0,0-4.08-2.42,22.2,22.2,0,0,0-3.47-3.21l-.35-.25-.22-.17A21.64,21.64,0,0,0,126,45.08a21.67,21.67,0,0,0-3.47-3.2l-.22-.16-.35-.27A22,22,0,0,0,117.87,39a21.86,21.86,0,0,0-3.48-3.22l-.25-.18a3.92,3.92,0,0,0-.32-.25,22.6,22.6,0,0,0-4.29-2.52h0a3.27,3.27,0,0,0-.36-.25.71.71,0,0,0-.14-.1,16.54,16.54,0,0,0-4-2.07,2,2,0,0,0-.74-1.05l-2.63-2a2.13,2.13,0,0,0-1.77-.35c-7-4.51-8.29-7.37-9.12-12.71A10.85,10.85,0,0,0,92.82,17.6Zm-11.69,11a29.31,29.31,0,0,0-3.7.27,8,8,0,0,1-.92-9.78,6.63,6.63,0,0,1,9-1.23c1.1,6.42,4.12,8.66,10.91,12.92l-2.57,3.45C88.85,30,85.43,28.59,81.13,28.59Zm15.93,9-1.23-.91,3.72-5,.64.48.58.43-.64.86Zm3.28.62.33-.44,2.2-2.95c.71.28,1.25.52,1.7.73Zm5.84,6.89a19.2,19.2,0,0,1-2.87-1.78,9.32,9.32,0,0,1-2-2.17l6.15-3.88a18.85,18.85,0,0,1,3.43,2.05,19.59,19.59,0,0,1,2.16,1.87Zm8.16,6.08a19.71,19.71,0,0,1-2.91-1.8,19.5,19.5,0,0,1-2.6-2.33l6.64-3.78a19.85,19.85,0,0,1,5.72,4Zm8.15,6.07a19.73,19.73,0,0,1-2.94-1.81A19.12,19.12,0,0,1,117,53.12l6.65-3.78a19.3,19.3,0,0,1,3.52,2.09,20.31,20.31,0,0,1,2.2,1.92Zm8.15,6.08a20,20,0,0,1-5.53-4.12l6.66-3.79a19.54,19.54,0,0,1,3.49,2.07,19.85,19.85,0,0,1,2.22,2Zm8.18,6.08a19.29,19.29,0,0,1-3-1.86,19,19,0,0,1-2.54-2.26l6.67-3.79a19.06,19.06,0,0,1,5.72,4Zm2.6,2,6.69-3.81.21.1L143.9,73.6A20.41,20.41,0,0,1,141.42,71.38Zm26.25,21c-.38.35-.77.68-1.17,1A27.09,27.09,0,0,1,164,95.19,29.37,29.37,0,0,1,131.71,95l12.93-17.34,1.14-1.53,2.71-3.63,2.44-3.27.18-.24,2.74-3.68,4.28-5.74L161.5,55c.38.31.74.63,1.1.95a29.78,29.78,0,0,1,9.63,23.22h0a26.37,26.37,0,0,1-.34,3,24.18,24.18,0,0,1-1,3.83c-.15.45-.32.89-.5,1.33a23.63,23.63,0,0,1-2.09,4Z"/><path class="cls-2" d="M162,272.33q-6.4,9.62-11,11.27-2.18.78-3.67-1.62a10.6,10.6,0,0,1-1.38-5.28c0-2.46.86-5.6,2.76-9.43a40.56,40.56,0,0,1,5.39-8.42,4.17,4.17,0,0,1,1.61-1.27l0,0a2.57,2.57,0,0,1,1.74.07,24.75,24.75,0,0,0-3.11,10.09,18.61,18.61,0,0,0-.15,2.51c.05,2.07.52,3,1.42,2.62a8.68,8.68,0,0,0,2.65-1.93A29.12,29.12,0,0,0,161.6,267a45.44,45.44,0,0,1,1.37-8.55,6,6,0,0,1,.62-1.66,10.81,10.81,0,0,1,.76-.93c.31-.32.62-.63,1-.93a6.39,6.39,0,0,1,1.71-1.28,1.08,1.08,0,0,1,.88,0,1.87,1.87,0,0,1,.64.53,2.64,2.64,0,0,1,.64,1.67q.06,2.28-1.83,6.73.57,3.91,2,4.88a1.1,1.1,0,0,0,1.05.08c.9-.33,2.12-1.6,3.64-3.83a2,2,0,0,1,0-.34v-.4a33.35,33.35,0,0,1,.26-4.93,29.33,29.33,0,0,1,.7-4.18q.25-.63.66-1.41a15.93,15.93,0,0,1,1-1.57,6,6,0,0,1,2.32-2.2c.65-.23,1.11-.25,1.37,0a2.09,2.09,0,0,1,.64,1,15,15,0,0,1,.44,3.84,19.53,19.53,0,0,1-1.21,6.47c1.2,1.73,2.35,2.39,3.44,2,1.37-.5,2.89-2.05,4.56-4.67a27.24,27.24,0,0,0,1.4-2.51q1.13-.48,1.14.57,0,1.54-2.3,5.95a21.08,21.08,0,0,1-4.69,6.27,5.53,5.53,0,0,1-1.59,1c-2.36.85-4.3.78-5.8-.21a27.41,27.41,0,0,1-6.66,8.13,8.94,8.94,0,0,1-2.31,1.29,3,3,0,0,1-2,.12,3.37,3.37,0,0,1-1.53-1.08A9.47,9.47,0,0,1,162,272.33Z"/><path class="cls-2" d="M187,267.12a6.14,6.14,0,0,1-.6-2.76,12.63,12.63,0,0,1,.64-3.92,35.74,35.74,0,0,1,1.75-4.47c.72-1.52,1.52-3,2.42-4.54s1.79-2.86,2.68-4.08q2.93-4,4.34-4.46a2,2,0,0,1,1.36.1,3.55,3.55,0,0,1,1,.5,29.47,29.47,0,0,0-4.62,9.9,10.05,10.05,0,0,0-.27,2.48,2.12,2.12,0,0,0,3,2,7.21,7.21,0,0,0,2.3-1.26,16.57,16.57,0,0,0,2.07-2,25.15,25.15,0,0,0,3.49-5.22c.75-.3,1.14-.1,1.16.61a9,9,0,0,1-1,3.11,40.75,40.75,0,0,1-2,3.93,40.06,40.06,0,0,1-2.3,3.48,28.75,28.75,0,0,1-2.83,3.31,18.15,18.15,0,0,1-7.15,4.72Q188.49,269.89,187,267.12Zm18.81-32.63a13.84,13.84,0,0,1-2.22,1.56,12.23,12.23,0,0,1-2.07,1,5.65,5.65,0,0,1-1.59.3,3.08,3.08,0,0,1-1.28-.24,1.9,1.9,0,0,1-1.26-1.83,5.88,5.88,0,0,1,.39-2.34,6.61,6.61,0,0,1,1.24-2,9.69,9.69,0,0,1,4.27-2.81c1.67-.55,2.89-.59,3.68-.12a2.39,2.39,0,0,1,1.2,2.12,4.12,4.12,0,0,1-.66,2.44A9.45,9.45,0,0,1,205.84,234.49Z"/><path class="cls-2" d="M212.25,262.07q-8.07,2.52-8.24-4.67-.12-5,6-15.89c-.43,0-.82,0-1.18,0H208a.41.41,0,0,1-.41-.26,1.53,1.53,0,0,1-.06-.59,4.59,4.59,0,0,1,.32-1.39l3.84-.53a55.63,55.63,0,0,1,7.55-10.25,4.7,4.7,0,0,1,1.38-1.07,2,2,0,0,1,.72-.11,4,4,0,0,1,.66.11,2.38,2.38,0,0,1,1.13.58,79.58,79.58,0,0,0-6.22,10q5.82-.75,7.12-1.08c-.42,2-.92,3.15-1.51,3.34a34.26,34.26,0,0,1-7.2,1q-2.4,5.16-2.34,8.06.09,4,5.21,2.38,5.73-1.8,9.29-8.76c.76-.3,1.15-.09,1.16.62a8.25,8.25,0,0,1-1,3.11,38.85,38.85,0,0,1-2,3.86,37.23,37.23,0,0,1-2.4,3.44,29.41,29.41,0,0,1-3,3.31A20.39,20.39,0,0,1,212.25,262.07Z"/><path class="cls-2" d="M230,256.59q-5.55,1.62-5.71-5-.12-5.61,5.61-16.06a94.41,94.41,0,0,1,11-16.13c2.51-2.93,4.38-4.56,5.61-4.92a2.38,2.38,0,0,1,2.42.6,3.37,3.37,0,0,1,1.22,2.5,6.58,6.58,0,0,1-.54,2.77,17.32,17.32,0,0,1-1.56,2.79,31.1,31.1,0,0,1-2.31,3c-.9,1-1.84,2-2.85,3a38.72,38.72,0,0,1-6.12,5c-.69,1.9-1.37,4-2,6.23a41.58,41.58,0,0,1,11.85-10.23,17.78,17.78,0,0,1,3.69-1.68c1-.29,1.61-.29,1.82,0a1.91,1.91,0,0,1,.15,1.41,12.46,12.46,0,0,1-.68,2.25l-1,2.68a16.48,16.48,0,0,0-1.29,4.92c0,1.86.63,2.62,1.77,2.29a9.87,9.87,0,0,0,4.16-3,23.67,23.67,0,0,0,3.53-5.08c.76-.28,1.15-.06,1.17.65a8.85,8.85,0,0,1-1,3c-.68,1.47-1.35,2.76-2,3.88s-1.4,2.25-2.23,3.39a29.42,29.42,0,0,1-2.67,3.17,14.81,14.81,0,0,1-6.22,4.18c-2,.58-3.44.46-4.3-.36s-1.33-2.24-1.37-4.24q-.09-3.85,4.24-10.93c.89-1.45,1.27-2.16,1.15-2.13-1.35.4-3.4,1.88-6.13,4.46a31,31,0,0,0-6.09,7.32,48.78,48.78,0,0,0-1.06,8.51C232.19,255.59,231.46,256.16,230,256.59Zm8.16-26a33.66,33.66,0,0,0,5.57-5.39q2.32-2.91,2.28-4.53a3.16,3.16,0,0,0-.32-1.39c-.21-.4-.47-.55-.78-.46a3,3,0,0,0-1.2,1.07,22.74,22.74,0,0,0-1.61,2.47A67.91,67.91,0,0,0,238.14,230.63Z"/><path class="cls-2" d="M44.3,167.41a1.93,1.93,0,0,1-1.21-1.87,17,17,0,0,1,.35-2.67l.74-3.76a29.75,29.75,0,0,1-4,3.69c-.66.46-1.25.86-1.79,1.2a9.06,9.06,0,0,1-1.61.82,5.78,5.78,0,0,1-3.1-.32l-2.77-.89q-5.24-1.7-7.65-4.28a6.45,6.45,0,0,1-1.38-4.52,13.78,13.78,0,0,1,2.76-8,16.42,16.42,0,0,1,7.54-6q7.25-2.86,11.74-.06a9.06,9.06,0,0,1,3.3,3.92,12.54,12.54,0,0,1,1.18,5.38,17.51,17.51,0,0,1-1,5.7,8,8,0,0,0,4-.7,7.78,7.78,0,0,0,3.16-3.16,10.53,10.53,0,0,0,1.18-2.54,9,9,0,0,0,.43-2.71,9.53,9.53,0,0,0-.46-2.82,12.94,12.94,0,0,0,2.42-7.38c0-2.6-.66-4.26-2-5A7.52,7.52,0,0,0,57.53,127,5.47,5.47,0,0,0,56,122.84a3.33,3.33,0,0,0-1.55-.84,2.74,2.74,0,0,0-1.59.1,4,4,0,0,0-1.12.63,3.81,3.81,0,0,1,.23,1.46,5.61,5.61,0,0,1-.75,2.39,4.84,4.84,0,0,1-1.87,2,23.23,23.23,0,0,1-2.38,1.1,14.45,14.45,0,0,1-5.64,1.17,33.18,33.18,0,0,0-12.77,2.63A43.24,43.24,0,0,0,9.67,147.75a38.59,38.59,0,0,0-5.61,10,28.13,28.13,0,0,0-2,9.89,32.44,32.44,0,0,0,.64,7.21q1.83,7.8,11.91,13.79l2.12,1.2c.73.37,1.1.77,1.1,1.18a24,24,0,0,1-1,6.26q3.68-4.11,6.73-5.32c2-.78,4.66-.58,8,.62Q38,194.87,41.08,198q2,2,2,6.47a18.38,18.38,0,0,1-4.14,11.59,22.11,22.11,0,0,1-9.38,7.11q-8.22,3.24-13.52-.48a10.2,10.2,0,0,1-2.93-3.15c-.26-.6-.62-1.72-.66-1.85a11,11,0,0,1-.52-2.85,8.4,8.4,0,0,1,.35-2.73,6.53,6.53,0,0,1,.6-1.35,5.86,5.86,0,0,1,2-2,11.31,11.31,0,0,1,3.15-1c1.89-.32,4-.13,5.26,1.48a2.79,2.79,0,0,1,.42,2.54,3.63,3.63,0,0,1-2.06,2.41,1.39,1.39,0,0,1-1.27-.08,4.15,4.15,0,0,1-.56-.55c-.68-.68-1.58-.17-1.93.58a2.18,2.18,0,0,0,.94,2.49,3.86,3.86,0,0,0,2.5.64,7.65,7.65,0,0,0,6.82-6,.2.2,0,0,1,.32-.12,6,6,0,0,0,7.07-.45,7,7,0,0,0,1.94-7.26C36,198.9,30.39,197,26,197.38a17,17,0,0,0-4.81,1.19,27.27,27.27,0,0,0-6.88,4.14,28.6,28.6,0,0,0-3.09,2.86,12.19,12.19,0,0,1,1.66-4.11c-.66-1.06-1.76-1.28-3.31-.67s-3.14,2.37-4.75,5.27A19,19,0,0,0,3,210.4a17.28,17.28,0,0,0-.66,4.71,8.06,8.06,0,0,0,1,4.1Q0,224.49,0,228.29a5.77,5.77,0,0,0,2.88,5.45,4.33,4.33,0,0,1,.05.66v.93a11.21,11.21,0,0,1-1.32,5.72q.92,1.74,3.57.69,4.14-1.63,8.74-8.4,7.26,1.41,17.09-2.48a50.8,50.8,0,0,0,22.72-17.38,43.5,43.5,0,0,0,6.05-11,36.48,36.48,0,0,0,2.07-12.51,19.75,19.75,0,0,0-3.17-11.43Q55.07,173.19,44.3,167.41Zm4,38.37a23.74,23.74,0,0,0,.28-3.95q-.11-6.32-3-9.46-4-4.25-15.07-7.28a7.49,7.49,0,0,0-4.78.4,11,11,0,0,0-3.28,2.59c0-.18.12-.46.24-.83s.22-.77.31-1.18.21-.95.35-1.62-.4-1.35-1.59-2l-3.45-2Q7.82,174.46,7.82,166q0-4.14,2.19-6a15.84,15.84,0,0,0,4.37,11.39q5.24,5.85,15.31,9l8.17,2.77a40.07,40.07,0,0,1,5.89,2.5,21.13,21.13,0,0,1,3.89,2.58,12.28,12.28,0,0,1,2.61,3.26q1.13,2,1.13,6.43A11.23,11.23,0,0,1,48.33,205.78Z"/><path class="cls-2" d="M126.33,158.91a3.83,3.83,0,0,0,.31-1.72,1.84,1.84,0,0,0-.77-1.63,2.32,2.32,0,0,0-2.14,0,6,6,0,0,0-2.54,1.89,3.08,3.08,0,0,0-2.55,0,5.68,5.68,0,0,0-2.58,2,2.82,2.82,0,0,0-2.57-.14,5,5,0,0,0-2.35,1.69,3.74,3.74,0,0,0-.85,2.17,2.59,2.59,0,0,0,.35,1.5,6.27,6.27,0,0,1,2.3-1.47c1.78-.65,2.71-.18,2.77,1.4l-5.48,19.24-5.76-14.46.06.15a4.21,4.21,0,0,1-.19-1.36,3.17,3.17,0,0,1,.46-1.59,2.32,2.32,0,0,1,1.24-1.08,2,2,0,0,1,1.54,0,2.49,2.49,0,0,0,.48-1.48,1.48,1.48,0,0,0-1.2-1.61,3.08,3.08,0,0,0-1.28-.09,10.18,10.18,0,0,0-2.09.58,5.94,5.94,0,0,0-2.58,2,4.28,4.28,0,0,0-3.22.06,7.34,7.34,0,0,0-3.15,2.28,3.51,3.51,0,0,0-3-.06,6,6,0,0,0-2.72,1.88,3.83,3.83,0,0,0-1,2.32c0,.71.11,1.15.34,1.31A4.19,4.19,0,0,1,90,171.49c1.15-.42,2.08.07,2.8,1.47L87.49,192,81,176.5A2,2,0,0,1,81.6,175a2.39,2.39,0,0,1,.57-.49,5.3,5.3,0,0,1,1-.44,1.87,1.87,0,0,1,1.4.1,2.55,2.55,0,0,0,.47-1.48,1.92,1.92,0,0,0-1-1.86,3.5,3.5,0,0,0-2.8.13A7.45,7.45,0,0,0,78,173.24a4.51,4.51,0,0,0-3.36.08,7,7,0,0,0-3.19,2.36,4.7,4.7,0,0,0-3.42,0,5.51,5.51,0,0,0-2.7,1.87,4,4,0,0,0-.85,2.27c0,.71.12,1.15.35,1.31a4.49,4.49,0,0,1,2-1.28,2.36,2.36,0,0,1,2.08.05,4.81,4.81,0,0,1,1.23,2l1.29,3c.34.84.62,1.55.84,2.14s.38,1.09.49,1.5a5.86,5.86,0,0,1,.15,1.39c0,.51-.75,1.73-2.26,3.67l1.82.07c2,.11,3.24.78,3.78,2l6.68,14.43a5.21,5.21,0,0,0,1.37-.26,4,4,0,0,0,1.15-.66,6.25,6.25,0,0,0,2.2-3.34L95,178l10.52,24a5,5,0,0,0,1.41-.28c1.52-.55,2.62-1.87,3.31-4l4.51-16.14a9.06,9.06,0,0,1,1.76-3.22,16,16,0,0,1,3.24-2.55,2.24,2.24,0,0,1-1.41-.62,3.49,3.49,0,0,1-.65-.74,2.24,2.24,0,0,1-.27-1.23,8,8,0,0,1,.35-2.05l2.27-7.85a5.08,5.08,0,0,1,2.61-3.43,13.65,13.65,0,0,1,1.75-.74A3.42,3.42,0,0,1,126.33,158.91ZM82.1,199.5a7.45,7.45,0,0,1-1.29-1.91l-1.73-3.5c-.17-.38-.32-.7-.44-.94l-.44-.75c-.36-.54-1.27-.7-2.74-.48a3.07,3.07,0,0,0,.91-1.2,2.67,2.67,0,0,0,.28-.66,2.16,2.16,0,0,0,.08-.75,8.86,8.86,0,0,0-.8-2.13,14.72,14.72,0,0,1-1-2.83,5,5,0,0,1-.16-.93c0-.27,0-.69,0-1.28a1.87,1.87,0,0,1,.44-1.33L83.8,200A2,2,0,0,1,82.1,199.5Zm23.09-7.27-5.57-11.54-.7-1.7c-.25-.55-.47-1.09-.66-1.6a14.41,14.41,0,0,1-.46-1.47,7.41,7.41,0,0,1-.17-1.65,3.77,3.77,0,0,1,.44-1.77l5.64,12.43.85,2.21c.23.6.42,1.12.55,1.54a9.4,9.4,0,0,1,.29,1.07,8,8,0,0,1,.07,1.24A2.26,2.26,0,0,1,105.19,192.23Z"/><path class="cls-2" d="M161.14,178.81q-1.71.58-2.64-1.62V167.14a5.8,5.8,0,0,1,.86-3,12.18,12.18,0,0,1,2.57-2.61,3.8,3.8,0,0,1-2.65-.82,3.26,3.26,0,0,1-.78-2.41v-2.72a15.43,15.43,0,0,0-.79-5.36q-2.42-6.28-13.36-2.59a25.63,25.63,0,0,0-10.86,6.85q-3.53,3.84-3.9,6.55a6.58,6.58,0,0,1-1.94,3.77,2,2,0,0,0,1.19.8,2.44,2.44,0,0,0,1.37,0,5.23,5.23,0,0,0,1.09-.51,2.3,2.3,0,0,0,2.92,1.13,4.35,4.35,0,0,0,2.67-2.14c-.51,0-.76-.27-.76-.85v-.1a3.16,3.16,0,0,0,1.23-.19,4.09,4.09,0,0,0,2.67-3.51c-1.69.62-2.54.05-2.54-1.69a4.69,4.69,0,0,1,1.26-3.15,8.57,8.57,0,0,1,3.87-2.33c1.74-.59,3-.52,3.9.22s1.29,2.21,1.29,4.42v5a10.21,10.21,0,0,1-3.43,3.13,21.2,21.2,0,0,1-2.7,1.35q-1.52.65-4.7,1.81a17.51,17.51,0,0,0-5.81,3.55,12.64,12.64,0,0,0-3.49,5.83,10.2,10.2,0,0,1-3.27,5.26,5.5,5.5,0,0,1,2,.7,2.71,2.71,0,0,1,1.11,1.78,7.15,7.15,0,0,0,2.1,3.55q3.53,3.27,10.57.89a15.28,15.28,0,0,0,8.66-6.95,2.84,2.84,0,0,0,1.84,2.32,3.48,3.48,0,0,0,1.45.2A7.14,7.14,0,0,0,154,185a6.35,6.35,0,0,0,2.43-1.89,5,5,0,0,0,3.36-.07,5.49,5.49,0,0,0,2.72-1.79,3.62,3.62,0,0,0,.9-2.13,2.12,2.12,0,0,0-.44-1.44A4,4,0,0,1,161.14,178.81Zm-26.79,8.38c-1.61-.77-2.77-2.37-3.49-4.78q-.2-.67-2.22-1,2.09-1.71,2.22-2.46a14.84,14.84,0,0,1,1.58-4.52,8.06,8.06,0,0,1,1.91-2.16.38.38,0,0,1,.28.39,3.83,3.83,0,0,1-.41,1.2l-.52,1a9.32,9.32,0,0,0-.54,1.27,9.21,9.21,0,0,0-.38,1.62,20,20,0,0,0-.15,2.9,8.79,8.79,0,0,0,1.59,4.52,2.64,2.64,0,0,1,.45,1.26A1,1,0,0,1,134.35,187.19ZM147.81,177a8.05,8.05,0,0,1-1.08,4.15,5.41,5.41,0,0,1-2.89,2.48,2.92,2.92,0,0,1-3.59-.9,5.81,5.81,0,0,1-.85-2.06,11.76,11.76,0,0,1-.29-2.65c0-4.49,1.16-7.31,3.49-8.48a20.53,20.53,0,0,0,5.21-3.47Zm4.95-8.61q-.09,6.66-1.94,8.06V154.15a2.19,2.19,0,0,1,1.15.71c.4.41.64,2,.73,4.79,0,.78,0,1.59,0,2.45s0,1.89,0,3.09Z"/><path class="cls-2" d="M190,150.9c-1-.54-1.47-1.13-1.47-1.78a13.76,13.76,0,0,1,.38-2.36,7.87,7.87,0,0,1-3.22,2,5.48,5.48,0,0,1-3.07-.53,6.61,6.61,0,0,1-2.61-1.64,3.3,3.3,0,0,1-.69-1.11,4.07,4.07,0,0,1-.21-1.37,3.85,3.85,0,0,1,.35-1.57,6.65,6.65,0,0,1,4.35-3.53,6.4,6.4,0,0,1,4.4-.06,3.53,3.53,0,0,1,1.63,1.32,3.84,3.84,0,0,1,.64,2.19,7.4,7.4,0,0,1-.42,2.46,3,3,0,0,0,1.85-.22,3.89,3.89,0,0,0,1.7-1.34,3.29,3.29,0,0,0,.89-2,2.83,2.83,0,0,0-.29-1.38,4.82,4.82,0,0,0,1.28-3.12,2.45,2.45,0,0,0-.89-2.2,3.37,3.37,0,0,0,.38-1.68,2.13,2.13,0,0,0-.77-1.68,2.06,2.06,0,0,0-1.75-.31,2.16,2.16,0,0,0-.58.25,1.9,1.9,0,0,1,.1.72,2.3,2.3,0,0,1-.5,1.21,3.19,3.19,0,0,1-1.74,1.13,5.87,5.87,0,0,1-2.1.33,15.56,15.56,0,0,0-1.71.05,19.54,19.54,0,0,0-3.94,1,21.69,21.69,0,0,0-9.74,6.09,15.66,15.66,0,0,0-2.83,4.26,11.87,11.87,0,0,0-1,4.83,8,8,0,0,0,1.21,4.44,8.31,8.31,0,0,0,1.61,1.9,15.91,15.91,0,0,0,2.29,1.67,2.16,2.16,0,0,1,1.27,1.78,6.46,6.46,0,0,1-.41,2.15,8.53,8.53,0,0,1,2.62-1.17,7.36,7.36,0,0,1,5.2,0,13.07,13.07,0,0,1,3.41,1.53,4.25,4.25,0,0,1,1.09,1.11,2.74,2.74,0,0,1,.42,1.57,5.31,5.31,0,0,1-.45,2,8.64,8.64,0,0,1-5.62,4.91,7.49,7.49,0,0,1-6.13-.26,4.74,4.74,0,0,1-1.87-1.92,7.08,7.08,0,0,1-.68-3.35,5.72,5.72,0,0,1,.86-3.34c-.28-.38-.74-.47-1.37-.27a5.76,5.76,0,0,0-2.72,2.14,8.83,8.83,0,0,0-.94,1.66,5.22,5.22,0,0,0-.37,2,2.77,2.77,0,0,0,.64,1.87,6.66,6.66,0,0,0-1.34,3.29,4,4,0,0,0,.42,2,1.6,1.6,0,0,0,1.16.86,2.33,2.33,0,0,1,.15.9,3.14,3.14,0,0,1-.74,1.77q.42.75,1.53.39a9.38,9.38,0,0,0,4.19-3.51,17.42,17.42,0,0,0,7.82-.85,25.76,25.76,0,0,0,10.75-6.55,18.38,18.38,0,0,0,3.39-4.68,12,12,0,0,0,1.24-5.43,8.13,8.13,0,0,0-1.43-4.91C194.58,153.24,192.7,152,190,150.9Zm-21.77,25.7.41.64s0,.08.05.12Zm23.56-13a4.1,4.1,0,0,1-1.76,2.6,5.74,5.74,0,0,0,.38-2.33c0-2.62-1.83-4.52-5.49-5.73-2.3-.94-4.22-1.08-5.78-.43-.63.27-1.08.48-1.34.62a5,5,0,0,0,.13-1.28c0-.33-.22-.61-.67-.82a14.53,14.53,0,0,1-4.15-3,5.36,5.36,0,0,1-1.31-3.63,3.63,3.63,0,0,1,.93-2.9q-.28,6.43,8.39,8.28a21.17,21.17,0,0,1,8,2.86,5.53,5.53,0,0,1,2.8,4.62A4.7,4.7,0,0,1,191.75,163.57Z"/><path class="cls-2" d="M240.06,154.45a1.88,1.88,0,0,1-2.67-1.28V142.68a4.82,4.82,0,0,1,.9-2.78,18,18,0,0,1,3-2.81,8,8,0,0,1-3.24-1.14,2.51,2.51,0,0,1-.68-2.08v-2.25a16.86,16.86,0,0,0-.7-5.18q-2.22-6.81-10.31-4.4a15.62,15.62,0,0,0-10.18,9.09V114.61q0-3.61-3.31-2.63a7.4,7.4,0,0,0-4,3.5,17.75,17.75,0,0,0-3.6.76,8.76,8.76,0,0,0-3.85,2.29,5.61,5.61,0,0,0-1,1.47,3.39,3.39,0,0,0-.34,1.43,1.73,1.73,0,0,0,.45,1.19,3.88,3.88,0,0,1,1.8-1.11q3-.89,3,2.93v19a5,5,0,0,1-1.06,3,17.52,17.52,0,0,1-2.86,2.56,9.28,9.28,0,0,1,3.31,1.12c.4.28.61,1,.61,2.1v10.32a4.21,4.21,0,0,1-2.67,3,2.43,2.43,0,0,1-1.8,0,3.69,3.69,0,0,0-.45,1.88,1.7,1.7,0,0,0,.92,1.4,3.39,3.39,0,0,0,2.79,0,7.74,7.74,0,0,0,3.36-2.07,4.89,4.89,0,0,0,3.3.09,6.93,6.93,0,0,0,3.12-1.94,3.7,3.7,0,0,0,2.83.17,5.06,5.06,0,0,0,2.5-1.58,3.55,3.55,0,0,0,.93-2.28q0-1.16-.48-1.44a3.36,3.36,0,0,1-1.48,1,1.52,1.52,0,0,1-2-1V138.13a11.47,11.47,0,0,1,.55-2.64q1.31-4.08,4.65-5.07a6.41,6.41,0,0,1,2.09-.29q3,.1,3,6.63v20a3.15,3.15,0,0,1-2,2.25,1.93,1.93,0,0,1-1.48-.17,2,2,0,0,0-.48,1.32,2.27,2.27,0,0,0,.93,2.13,3,3,0,0,0,2.49.1,6.17,6.17,0,0,0,2.81-1.84,4.47,4.47,0,0,0,3.16.06,7.42,7.42,0,0,0,3.26-2,5.24,5.24,0,0,0,3.44.05,5,5,0,0,0,2.71-1.73,3.74,3.74,0,0,0,.85-2.15,2.08,2.08,0,0,0-.35-1.36A3.86,3.86,0,0,1,240.06,154.45Zm-29.8-11.13v3c0,.25,0,.63,0,1.13s0,1.35-.05,2.54-.06,2.28-.12,3.26c-.18,2.24-.74,3.83-1.71,4.76v-2.18a38.36,38.36,0,0,0-.38-7.12c-.17-.6-.9-.94-2.18-1a4.69,4.69,0,0,0,2.18-2.36q.09-.41.24-1.23c.1-.55.14-3.14.14-7.77V125.05c.73.28,1.25,1.07,1.55,2.39.15.63.24,3.89.28,9.8l.07,3.26Zm21.13,3.49q-.19,3.81-1.8,4.93V139.68c0-1.55-.06-3.12-.19-4.74a15,15,0,0,0-1.42-5.07,5.62,5.62,0,0,1,1.64.6,2.83,2.83,0,0,1,1.11,1.41,10.7,10.7,0,0,1,.63,3c.12,1.28.19,3,.19,5S231.5,144.28,231.39,146.81Z"/><path class="cls-2" d="M282.44,120.07c-.49-5.13-1.82-8.44-4-9.9a6.58,6.58,0,0,0-3.82-1.11,16.12,16.12,0,0,0-4.2.54,17.5,17.5,0,0,0-3.26,1.19,19.36,19.36,0,0,0-6.66,5.4V101.85q0-3.61-3.33-2.71-2,.56-4,3.4a18.13,18.13,0,0,0-3.65.69,8.48,8.48,0,0,0-3.88,2.2,5.66,5.66,0,0,0-1,1.45,3.42,3.42,0,0,0-.34,1.41,1.76,1.76,0,0,0,.45,1.2,3.86,3.86,0,0,1,1.82-1.06c2-.55,3,.46,3,3v19a4.78,4.78,0,0,1-1.07,3,17,17,0,0,1-2.87,2.49,7.79,7.79,0,0,1,3.33,1.37,2.48,2.48,0,0,1,.61,2v9.31c0,1,0,2.18-.06,3.4a5.85,5.85,0,0,1-.78,2.93c.5.44,1.83.37,4-.22a15.38,15.38,0,0,0,7.18-5,7.45,7.45,0,0,0,2,.78,12.91,12.91,0,0,0,6.73,0,16.39,16.39,0,0,0,9.73-6.84q3.06-4.7,4-13a7.32,7.32,0,0,1,1-3,13.76,13.76,0,0,1,2.91-2.77C284,124.34,282.66,122.76,282.44,120.07Zm-25,23.74a1.61,1.61,0,0,1-1.05-.74,3.49,3.49,0,0,1-.59-1.59c-.09-.63-.16-2.14-.2-4.54,0-1.11,0-2.7-.06-4.76s-.05-3.69-.07-4.89v-6.23a53.66,53.66,0,0,1,.36-7.4,4.19,4.19,0,0,1,1.61-2.85Zm14.1-7.06q0,8-5.4,9.51a3.92,3.92,0,0,1-3.81-.87,5.07,5.07,0,0,1-1.78-4.17V125.07a12.36,12.36,0,0,1,.55-3.9,7.9,7.9,0,0,1,5.59-5.65,4.86,4.86,0,0,1,2-.15q2.81.41,2.81,6.71Zm4.88-2.5c-.11,2.53-.7,4.16-1.78,4.87V116.81a2.43,2.43,0,0,1,1.16.75q.62.64.75,5.5c0,.86,0,1.7.05,2.51s0,1.83,0,3.05S276.53,131.71,276.4,134.25Z"/><path class="cls-2" d="M329.3,131.17q-2.08.51-2.7-1.92v-8.64c0-2.6,1.32-4.84,4-6.74a7.29,7.29,0,0,1-3.39-1.65,3,3,0,0,1-.58-2.13V99q0-3.61-3.36-2.79a5.64,5.64,0,0,0-3.38,2.94,11.13,11.13,0,0,0-4.28.28,7.27,7.27,0,0,0-3.89,2.43,5.78,5.78,0,0,0-1.05,1.65,4,4,0,0,0-.35,1.52,1.81,1.81,0,0,0,.46,1.21,3.71,3.71,0,0,1,1.82-1c2-.5,3,.53,3,3.07v17A11.35,11.35,0,0,1,314,130.1a7.48,7.48,0,0,1-1.59,1.72,5.36,5.36,0,0,1-2,1,4.59,4.59,0,0,1-2,.1q-2.87-.57-2.86-6.93V104.15q0-3.62-3.36-2.79a5.66,5.66,0,0,0-3.38,2.94,11,11,0,0,0-4.23.27,7.83,7.83,0,0,0-5,4.66,4.84,4.84,0,0,0-.35,1.62,1.79,1.79,0,0,0,.46,1.21,3.32,3.32,0,0,1,1.56-1,13.69,13.69,0,0,1,1.4-.28c1.26-.15,1.89.73,1.89,2.62V118a5.46,5.46,0,0,1-1,3,14.17,14.17,0,0,1-3,2.71q4,.9,4,4.79v2.07q0,6.17,2.6,8.88a6.27,6.27,0,0,0,3.35,1.79,12.49,12.49,0,0,0,5.26-.38,14.15,14.15,0,0,0,6-3.3,18.45,18.45,0,0,0,4.47-6q.36,6.45,4.95,5.32a6,6,0,0,0,2.9-1.78,6.26,6.26,0,0,0,3.72.15,5.35,5.35,0,0,0,2.9-1.58,3.24,3.24,0,0,0,.92-2.05,2.2,2.2,0,0,0-.45-1.48A3.69,3.69,0,0,1,329.3,131.17Zm-30-5.21a27.39,27.39,0,0,1-.16,3.79c-.42,1.93-.95,3.06-1.6,3.37V131a38.68,38.68,0,0,0-.39-7.18c-.17-.62-.91-1-2.21-1.16a6.83,6.83,0,0,0,1.58-1.24,3.82,3.82,0,0,0,.78-1.67,49.27,49.27,0,0,0,.24-6.71v-2.18q1,0,1.56,2.4a23.72,23.72,0,0,1,.2,3.9l-.1,4.45Zm21.34-5.91q-.09,6.66-2,7.89V105.63a2.45,2.45,0,0,1,1.17.8q.61.66.75,4.86c0,.77,0,1.59.05,2.45s0,1.89,0,3.09Z"/><path class="cls-2" d="M358.32,105.53a1.65,1.65,0,0,0,1.17.43,5,5,0,0,0,1.48-.07,6.58,6.58,0,0,0,1.31-.45,7.67,7.67,0,0,0,3.3-3,4.84,4.84,0,0,0,1.15-.12,4,4,0,0,0,2.75-2.24c-1.12-.2-1.67-1.12-1.67-2.75a7.82,7.82,0,0,0-3.64-6.81q-3.82-2.64-9.42-1.42a21.54,21.54,0,0,0-11,6,19.22,19.22,0,0,0-5.56,11.34,9,9,0,0,1-4,6.67,7.19,7.19,0,0,1,3.24,1.67,4.38,4.38,0,0,1,.75,2.18q.88,7.06,5.17,10.46a11.46,11.46,0,0,0,5.07,2.22,15.79,15.79,0,0,0,6.25-.18A21.78,21.78,0,0,0,361,127a20.05,20.05,0,0,0,2.83-2,15.74,15.74,0,0,0,2.34-2.35,11.21,11.21,0,0,0,1.62-2.67,6.67,6.67,0,0,0,.61-2.66,3.13,3.13,0,0,0-.59-2,1.85,1.85,0,0,0-2-.66,3.53,3.53,0,0,0-2.65,2,4.68,4.68,0,0,1,.13,1.18,5.66,5.66,0,0,1-1.8,4,8.74,8.74,0,0,1-2.18,1.58,11,11,0,0,1-2.86,1,7.63,7.63,0,0,1-2.81.15q-4.26-.59-4.26-6.27V102.06q0-7.29,5.53-8.51a4.69,4.69,0,0,1,3.73.4A3.47,3.47,0,0,1,360,97a3.67,3.67,0,0,1-.4,1.72,5,5,0,0,1-3.53,2.69c.35,1.66,1.26,2.33,2.75,2l.26-.06a2.07,2.07,0,0,0,.36-.11A2.81,2.81,0,0,1,358.32,105.53Zm-14.24,13.81a6.91,6.91,0,0,1,.29,1.81,1.36,1.36,0,0,1-.45.94,14.83,14.83,0,0,1-1.28-2,31.89,31.89,0,0,1-2-6.77c-.11-.56-.75-1-1.93-1.29,1.18-.81,1.82-1.52,1.93-2.13q.47-2.23,1.18-5.21a14.53,14.53,0,0,1,2.1-5,1.14,1.14,0,0,1,.45,1.07,8.07,8.07,0,0,1-.29,1.6c-.31,1.23-.59,2.64-.85,4.21-.15.82-.27,1.62-.36,2.41a30.44,30.44,0,0,0-.13,3.24A31.84,31.84,0,0,0,344.08,119.34Z"/><path class="cls-2" d="M413.09,113.94a1.79,1.79,0,0,1-1.81-.59,12.21,12.21,0,0,1-1.63-2.64l-10-18.19,5.46-5.86c.77-.84,1.47-1.56,2.11-2.16a14,14,0,0,1,1.76-1.44,5.61,5.61,0,0,1,2.11-.79,2.52,2.52,0,0,1,2.19.49,3.68,3.68,0,0,0,.32-1.77,2.12,2.12,0,0,0-1-2,3.47,3.47,0,0,0-2.52-.32,5,5,0,0,0-2.63,1.4,3.58,3.58,0,0,0-2.63-.4,5.12,5.12,0,0,0-2.8,1.67,4.28,4.28,0,0,0-3.19-.53,4.86,4.86,0,0,0-2.8,1.44,3.17,3.17,0,0,0-1,2,2.65,2.65,0,0,0,.36,1.49,5.42,5.42,0,0,1,2.34-1.08c.83-.16,1.25.09,1.25.76s-.72,1.91-2.17,3.7L387.27,100v-28q0-3.61-3.39-3A6.57,6.57,0,0,0,379.8,72a17.83,17.83,0,0,0-3.69.4,7.76,7.76,0,0,0-3.92,1.89,5,5,0,0,0-1.07,1.37,3.16,3.16,0,0,0-.34,1.39,1.87,1.87,0,0,0,.46,1.24,3.5,3.5,0,0,1,1.84-.92q3.06-.59,3.06,3.23v19a4.5,4.5,0,0,1-1.08,2.92,15.65,15.65,0,0,1-2.93,2.27,9,9,0,0,1,3.42,1.62,2.72,2.72,0,0,1,.59,2v10.29a3.67,3.67,0,0,1-2.73,2.76,2.57,2.57,0,0,1-1.84-.21,3.31,3.31,0,0,0-.46,1.83,1.9,1.9,0,0,0,.94,1.49,3.65,3.65,0,0,0,2.86.33,7.08,7.08,0,0,0,3.44-1.73,5.2,5.2,0,0,0,3.39.43,6.36,6.36,0,0,0,3.19-1.62,4,4,0,0,0,2.9.46,4.84,4.84,0,0,0,2.56-1.26,3,3,0,0,0,1-2.18c0-.81-.17-1.34-.49-1.56a3.12,3.12,0,0,1-1.52.89,1.73,1.73,0,0,1-2.07-1.25V105.8l4.11-4.44,7,14.12a2.83,2.83,0,0,1-.82,1.06,2.19,2.19,0,0,1-2.57.15,2.51,2.51,0,0,0-.49,1.74,2,2,0,0,0,.95,1.81,3.5,3.5,0,0,0,2.55.3,5.61,5.61,0,0,0,2.88-1.55,4.84,4.84,0,0,0,3.24.39,6.94,6.94,0,0,0,3.41-1.79,6.92,6.92,0,0,0,3.95.38,5.25,5.25,0,0,0,3-1.43,3.11,3.11,0,0,0,.93-2,2.22,2.22,0,0,0-.46-1.5A3.47,3.47,0,0,1,413.09,113.94ZM381.15,97.88l0,4.47v2c0,.51,0,1.1,0,1.78v2q-.1,4.91-1.84,6.38v-2.18a37.46,37.46,0,0,0-.4-7.16c-.17-.61-.92-1-2.24-1.25,1.3-.69,2-1.4,2.24-2.13.07-.26.15-.66.25-1.21s.15-3.12.15-7.75V81.56a3.45,3.45,0,0,1,1.68,2.53,58.08,58.08,0,0,1,.23,7.23Zm19,12.7-6-12.2,1.48-1.62,3.13,6.31a22.46,22.46,0,0,1,1.25,2.71,14.4,14.4,0,0,1,.38,1.47,9.53,9.53,0,0,1,.14,1.71A2.91,2.91,0,0,1,400.14,110.58Z"/><path class="cls-2" d="M435.47,110.36a2.33,2.33,0,0,1-2.74-1.79V98.25a4.25,4.25,0,0,1,.92-2.66,17.56,17.56,0,0,1,3.11-2.39,9,9,0,0,1-3.34-1.6,2.79,2.79,0,0,1-.69-2.2V63.87q0-3.61-3.31-3.07a6.41,6.41,0,0,0-4.1,3,18.05,18.05,0,0,0-3.7.31,7.53,7.53,0,0,0-3.93,1.79,4.49,4.49,0,0,0-1.08,1.34,3.14,3.14,0,0,0-.35,1.39,1.9,1.9,0,0,0,.47,1.24,3.37,3.37,0,0,1,1.85-.87c2.05-.34,3.07.77,3.07,3.31V91.22a4.42,4.42,0,0,1-1,2.89,15,15,0,0,1-3,2.23A10.76,10.76,0,0,1,421.06,98a2.79,2.79,0,0,1,.59,2v10.32a3.56,3.56,0,0,1-2.74,2.69,2.58,2.58,0,0,1-1.85-.26,3.26,3.26,0,0,0-.46,1.82,2,2,0,0,0,.94,1.52,3.69,3.69,0,0,0,2.87.39,6.9,6.9,0,0,0,3.46-1.63,5.35,5.35,0,0,0,3.42.51,5.92,5.92,0,0,0,3.22-1.61,5.6,5.6,0,0,0,3.51.5,4.77,4.77,0,0,0,2.83-1.33,3.06,3.06,0,0,0,.94-2,2.3,2.3,0,0,0-.47-1.52A3.37,3.37,0,0,1,435.47,110.36ZM426.78,94.8c0,.25,0,.63,0,1.13s0,1.35-.05,2.54-.06,2.26-.13,3.24c-.18,2.21-.76,3.73-1.75,4.54v-2.18a37.67,37.67,0,0,0-.4-7.17c-.18-.62-.93-1.06-2.25-1.31,1.3-.66,2.05-1.35,2.25-2.08.07-.25.15-.65.25-1.19s.15-3.13.15-7.75V73.28a3.51,3.51,0,0,1,1.58,2.59,97.81,97.81,0,0,1,.33,9.83V89c0,1,0,2,0,2.81Z"/><path class="cls-2" d="M445.61,64.24A5,5,0,0,0,448,66.3a5.92,5.92,0,0,0,3.27.43,6.38,6.38,0,0,0,3.1-1.35,8,8,0,0,0,2.16-2.52,7.29,7.29,0,0,1,1.7-2.23,7.67,7.67,0,0,1,.92-.66c.32-.21.64-.43,1-.68a5.59,5.59,0,0,1-3.48-2.58q-1.65-2.91-5.37-2.37a8,8,0,0,0-3.33,1.3,6.67,6.67,0,0,0-2.31,2.6A8,8,0,0,1,443.29,61l-1.13.87c.4.12.75.24,1.06.35A4.9,4.9,0,0,1,445.61,64.24ZM447,60.08a8.24,8.24,0,0,0,.45-.75,7.8,7.8,0,0,1,.43-.7,10,10,0,0,1,.75-.88,2.9,2.9,0,0,1,1.72-.7,7.17,7.17,0,0,0-1.26,3.33,8,8,0,0,0,.12,1.71,2.77,2.77,0,0,0,.31.79,7.24,7.24,0,0,0,.42.61c.14.2.28.4.41.63a2.5,2.5,0,0,1-2.35-.76A15.3,15.3,0,0,1,447,62.15a2.45,2.45,0,0,0-1-.81A4.23,4.23,0,0,0,447,60.08Z"/><path class="cls-2" d="M459.44,106.83a2.56,2.56,0,0,1-2.49-1.41V94.63a4.14,4.14,0,0,1,.93-2.65A17.07,17.07,0,0,1,461,89.65,9.72,9.72,0,0,1,457.65,88a2.83,2.83,0,0,1-.7-2.21V74.32q0-3.61-3.41-3.12a5.57,5.57,0,0,0-3.72,2.68,9.44,9.44,0,0,0-4.08-.21,6.31,6.31,0,0,0-4,2.38,6.58,6.58,0,0,0-1.07,1.78,4.42,4.42,0,0,0-.35,1.59,1.94,1.94,0,0,0,.46,1.26,3,3,0,0,1,1.59-.8,13.57,13.57,0,0,1,1.43-.14c1.28,0,1.92.91,1.92,2.81v4.89a4.25,4.25,0,0,1-1.09,2.87,14.35,14.35,0,0,1-2.95,2.13,10.88,10.88,0,0,1,3.45,1.75,2.88,2.88,0,0,1,.59,2.06v10.69a3.54,3.54,0,0,1-2.45,2.23,3.18,3.18,0,0,1-2.16-.26,3.22,3.22,0,0,0-.46,1.81,2,2,0,0,0,.94,1.54,3.76,3.76,0,0,0,2.89.45,6.77,6.77,0,0,0,3.46-1.57,5.55,5.55,0,0,0,3.49.57,6,6,0,0,0,3.28-1.55,5.62,5.62,0,0,0,3.51.56,4.68,4.68,0,0,0,2.84-1.28,2.91,2.91,0,0,0,.94-2,2.35,2.35,0,0,0-.46-1.53A3.77,3.77,0,0,1,459.44,106.83Zm-8.56-15.14c0,.31,0,.72,0,1.24s0,1.15,0,1.91-.07,1.87-.18,3.31c-.13,2.1-.71,3.55-1.72,4.37v-2.18a39,39,0,0,0-.4-7.21c-.18-.64-.93-1.1-2.26-1.38a5.68,5.68,0,0,0,1.61-1.09,3.31,3.31,0,0,0,.8-1.59,47.68,47.68,0,0,0,.25-6.68V80.21a3.29,3.29,0,0,1,1.52,2.46,22.14,22.14,0,0,1,.33,3.13c0,.63,0,1.26.05,1.91s0,1.23,0,1.77,0,1,0,1.3Z"/><path class="cls-2" d="M505.81,101.26a2.32,2.32,0,0,1-2.76-1.76V89a4.06,4.06,0,0,1,.93-2.62,16.6,16.6,0,0,1,3.13-2.23,9.55,9.55,0,0,1-3.36-1.76,2.89,2.89,0,0,1-.7-2.23V78q0-6.19-2.6-9.15a7.46,7.46,0,0,0-3.38-2.15,14.34,14.34,0,0,0-11.77,2.28,15.7,15.7,0,0,0-4.72,5.48V71.28a3.92,3.92,0,0,0-.73-2.65,3,3,0,0,0-2.63-.59,5.91,5.91,0,0,0-3.73,2.5,8.48,8.48,0,0,0-3.85-.29,6.24,6.24,0,0,0-4.07,2.27,6.31,6.31,0,0,0-1.05,1.75,4.24,4.24,0,0,0-.35,1.58,2,2,0,0,0,.46,1.27,2.87,2.87,0,0,1,1.6-.76,14.31,14.31,0,0,1,1.43-.09c1.29,0,1.93,1,1.93,2.86V84a4.11,4.11,0,0,1-1.1,2.84,13.44,13.44,0,0,1-3,2A9.38,9.38,0,0,1,469,90.83a2.78,2.78,0,0,1,.63,2.07v10.42a3.05,3.05,0,0,1-2.76,2.39,2.71,2.71,0,0,1-1.86-.35,2.92,2.92,0,0,0-.37,1.65,2.29,2.29,0,0,0,.88,1.65,3.49,3.49,0,0,0,2.85.6,6.61,6.61,0,0,0,3.49-1.47,5.49,5.49,0,0,0,3.4.68,5.39,5.39,0,0,0,3.09-1.35,4.53,4.53,0,0,0,5.43-.46,2.9,2.9,0,0,0,1-2.1,1.89,1.89,0,0,0-.5-1.54,2.74,2.74,0,0,1-1.53.78,1.9,1.9,0,0,1-2.1-1.4V81a9.09,9.09,0,0,1,2.16-4.88,7.7,7.7,0,0,1,1.87-1.57,5.77,5.77,0,0,1,2.23-.74,7.13,7.13,0,0,1,2.23.08c2.1.46,3.16,2.85,3.16,7.18v20a2.53,2.53,0,0,1-2.1,1.88,2.2,2.2,0,0,1-1.53-.43,1.67,1.67,0,0,0-.5,1.23,2.7,2.7,0,0,0,1,2.31,3.57,3.57,0,0,0,2.63.53,6,6,0,0,0,3.12-1.36,4.92,4.92,0,0,0,3.18.64,5.5,5.5,0,0,0,3.12-1.39,5.25,5.25,0,0,0,3.33.66,4,4,0,0,0,2.71-1.23,3.11,3.11,0,0,0,.88-2,2.25,2.25,0,0,0-.37-1.43A3.18,3.18,0,0,1,505.81,101.26ZM474.75,88.49c0,.31,0,.72,0,1.23s0,1.12,0,1.86-.06,1.84-.15,3.3q-.23,3.11-1.76,4.29V97a38,38,0,0,0-.4-7.19c-.18-.63-.93-1.1-2.26-1.42a5.4,5.4,0,0,0,1.61-1,3.42,3.42,0,0,0,.8-1.58,45.66,45.66,0,0,0,.25-6.65V76.92a3.47,3.47,0,0,1,1.53,2.51,20.74,20.74,0,0,1,.3,3.15c0,.62.07,1.25.08,1.9s0,1.23,0,1.77,0,1,0,1.29ZM497.26,92q-.18,3.78-1.84,4.6V83.85c0-1.54-.06-3.13-.2-4.76a16.65,16.65,0,0,0-1.46-5.33,7,7,0,0,1,1.48.78,3.72,3.72,0,0,1,1.18,1.64,12.55,12.55,0,0,1,.77,3.3,45.15,45.15,0,0,1,.26,5.45Q497.45,88.25,497.26,92Z"/><path class="cls-2" d="M550.56,55a11,11,0,0,0-7.25-1.72,9.81,9.81,0,0,0-6.42,3,10.75,10.75,0,0,0-3.24,6.43,22.43,22.43,0,0,0-4.31-.12,19.13,19.13,0,0,0-10.59,3.64,13.34,13.34,0,0,0-3.06,3.33,17,17,0,0,0-1.84,3.85,12.23,12.23,0,0,1-1.54,3.26,7,7,0,0,1-2.55,2.16,8.2,8.2,0,0,1,2.87,1.81,6.52,6.52,0,0,1,1.14,2.33q1.72,5.61,5.51,8c-3.85,2.38-5.78,5.19-5.78,8.46a6.64,6.64,0,0,0,2.41,5.32,11.22,11.22,0,0,0-2.14,1.56c-1.9,1.81-2.84,3.65-2.84,5.53,0,2.81,1.43,5,4.31,6.62q5,2.76,14.5,2.08a27.4,27.4,0,0,0,13.63-4.33,15.14,15.14,0,0,0,4.25-4.27,9,9,0,0,0,1.57-4.91,7.41,7.41,0,0,0-.94-4q-2.7-4.45-11.93-5.17a2,2,0,0,1-1.4-.86,4.68,4.68,0,0,1-.77-2.5c-1.54,2.27-3,3.32-4.48,3.13a21.92,21.92,0,0,1-6.48-1.14,2.64,2.64,0,0,1-1.2-1,2.69,2.69,0,0,1-.34-1.42,2.11,2.11,0,0,1,1.11-1.63,21,21,0,0,0,6.68.45,17.89,17.89,0,0,0,9.89-3.4,17.18,17.18,0,0,0,5.65-8.8,9.67,9.67,0,0,1,.6-1.55A8.24,8.24,0,0,1,549,76.1,6.72,6.72,0,0,1,545,71.3q-1.68-5.47-7.76-7.66.63-5.87,4.38-6.14c1.29-.09,1.94.48,1.94,1.7a2.59,2.59,0,0,1-.74,1.58,4.91,4.91,0,0,1-2,1.37,2.17,2.17,0,0,0,2.1,1.12c1.63-.12,2.68-.63,3.14-1.53a1.41,1.41,0,0,1,.57,1.15,1.49,1.49,0,0,1-.5,1.15,4,4,0,0,0,1.71.08q3.54-.26,3.91-4.8a3.34,3.34,0,0,0,2.07-3.6A3.81,3.81,0,0,1,550.56,55ZM519.15,87.42a15.26,15.26,0,0,1-1.91-4.92l-.67-2.77c-.06-.28-.69-.67-1.87-1.17,1.16-.6,1.78-1.07,1.87-1.41.25-1.11.58-2.4,1-3.85a11.5,11.5,0,0,1,2-4,.56.56,0,0,1,.26.49v.8a4.87,4.87,0,0,1-.23,1.29,23,23,0,0,0-.9,6.36,21.8,21.8,0,0,0,.9,6.27,5.69,5.69,0,0,1,.23,1.66A1.58,1.58,0,0,1,519.15,87.42ZM540,112.73q-2.25,2.74-9.73,3.28a20,20,0,0,1-9.92-1.37q-3.45-1.59-3.45-3.87a4.2,4.2,0,0,1,2.38-4.06,24,24,0,0,0,6.68,1.23,1.77,1.77,0,0,1,1.22.82,4.44,4.44,0,0,1,.62,2.67c1.8-2.08,3.32-3.09,4.54-3a28.25,28.25,0,0,1,5.58.63,5.3,5.3,0,0,1,2,.84,1.6,1.6,0,0,1,.75,1.33A2.37,2.37,0,0,1,540,112.73Zm-17.68-10.09a25.42,25.42,0,0,0,3.66.81q2,.28,6.9.51a33.94,33.94,0,0,1,7.78,1.05,5.57,5.57,0,0,1,2.41,1.15,2,2,0,0,1,.74,1.44,1.88,1.88,0,0,1-.41,1.23,8,8,0,0,0-4.57-2.55,46.92,46.92,0,0,0-6.82-.65,4.44,4.44,0,0,0-1.55.56,2.21,2.21,0,0,0-1.33,1.32c-.33-1.49-.89-2.3-1.67-2.42q-10.15-1.12-10.29-4.73a1.26,1.26,0,0,1,.3-.89C518.24,100.8,519.86,101.85,522.29,102.64Zm11-20.29a8.7,8.7,0,0,1-1,4.69,3,3,0,0,1-1.24,1.08,5.11,5.11,0,0,1-1.72.41,4.87,4.87,0,0,1-1.72-.16,3.19,3.19,0,0,1-1.47-1.22c-.49-.66-.74-2.07-.74-4.24V73.63a8.74,8.74,0,0,1,1-4.73,3,3,0,0,1,1.21-1,5.11,5.11,0,0,1,1.72-.41,4.87,4.87,0,0,1,1.72.16,3.25,3.25,0,0,1,1.47,1.22c.49.66.74,2.07.74,4.24Zm5-11.92a45.08,45.08,0,0,1,.27,6.42q0,3.24-.23,5.88c-.16,1.86-.75,3-1.77,3.44V68.11A2.84,2.84,0,0,1,538.29,70.43Z"/><path class="cls-2" d="M352.56,230.26a19.51,19.51,0,0,0,3.85-6.23,20.09,20.09,0,0,0,1.42-7.32c0-2.45-.47-4.26-1.39-5.43q1-1.93,4.06-2.56c2.06-.43,3.64-.07,4.75,1.06s1.67,3.11,1.67,5.94a23.05,23.05,0,0,1-2.21,9.23,32.73,32.73,0,0,1-6.21,9.23,41.33,41.33,0,0,1-22.12,11.95q-15.81,3.24-26-4.82Q300,233,297.9,214.24q-1-8.56-6.18-10.11a14.07,14.07,0,0,0,3.94-3.66,18,18,0,0,0,2.27-7.36,57.09,57.09,0,0,1,2-9.46,56.1,56.1,0,0,1,3.85-9.73,53.78,53.78,0,0,1,5.72-9,48.56,48.56,0,0,1,28.85-17.56q11.81-2.43,19.57,2.05,7,4.08,9,13.12,1,4.5,2.48,5.3a6,6,0,0,0,1.52.62A8.73,8.73,0,0,1,365.4,173a5.6,5.6,0,0,1-3.51,0q-3.33,6.49-9.39,8.11a2.17,2.17,0,0,1-1.94-.1,9.3,9.3,0,0,0,1.51-5.5,3.26,3.26,0,0,0-.18-1.08,6.81,6.81,0,0,1-4.73.47q-3.15-1.2-3.27-3.35a3.14,3.14,0,0,1,.18-1q3.76.34,7.15-3.2a6.48,6.48,0,0,0,2.19-4.78,8.44,8.44,0,0,0-1.1-4,7.72,7.72,0,0,0-2.78-2.65q-4.12-2.49-10.3-1.22-10.55,2.16-13.7,12.45a26.85,26.85,0,0,0-1,7.76v12.49q0,7,6.67,8.59-6.68,4.65-6.67,12.07v15.28q0,11.75,9.15,13.65a16.78,16.78,0,0,0,6.55-.17A25.91,25.91,0,0,0,347,234.5,20.45,20.45,0,0,0,352.56,230.26ZM311.66,233a1.69,1.69,0,0,0,.9-1.49,10.39,10.39,0,0,0-1.27-4q-3.21-6.83-3.21-26.69a85.07,85.07,0,0,1,3.39-25.31,10.45,10.45,0,0,0,.43-2.44.8.8,0,0,0-.79-.89,32.12,32.12,0,0,0-4.06,8.07,100.69,100.69,0,0,0-3.57,18.49c-.13,1.09-1.32,2.35-3.58,3.76,2.26.57,3.45,1.38,3.58,2.42q2.17,18.74,5.57,24.47A18.67,18.67,0,0,0,311.66,233Z"/><path class="cls-2" d="M377.17,227.66a18.32,18.32,0,0,1-1.47-4.81,20.27,20.27,0,0,0-.45-2.64,2.7,2.7,0,0,0-.61-1,7.3,7.3,0,0,0-3.14-1.71,7.91,7.91,0,0,0,3.67-4.81,14.68,14.68,0,0,0,.36-1.67,19.18,19.18,0,0,1,5.72-11,20.53,20.53,0,0,1,11.33-6,15.4,15.4,0,0,1,11.59,2.11,12.62,12.62,0,0,1,5.58,9,7.46,7.46,0,0,0,.89,2.93,5.76,5.76,0,0,0,3.14,2.18,11.15,11.15,0,0,0-2.9,2.44,7,7,0,0,0-1.13,3q-1,8.08-5.41,12.93a19.49,19.49,0,0,1-11.63,6.08q-7.8,1.34-12.25-2.5A12.48,12.48,0,0,1,377.17,227.66Zm4.47-.8a1.29,1.29,0,0,0,.47-.92,7,7,0,0,0-.3-1.82,32.27,32.27,0,0,1-1.35-7.09,30.19,30.19,0,0,1,.13-3.24c.09-.79.2-1.58.33-2.39.28-1.56.58-3,.89-4.17a8.18,8.18,0,0,0,.3-1.59,1.18,1.18,0,0,0-.47-1.09,13.81,13.81,0,0,0-2.11,4.85c-.48,1.95-.88,3.68-1.19,5.16q-.16.93-1.95,2.07c1.19.36,1.84.81,1.95,1.34a32.69,32.69,0,0,0,2,6.87A15.73,15.73,0,0,0,381.64,226.86Zm11-28.14q-5.61,1-5.61,9.33V222.9q0,8,5.58,7.09t5.65-9V206.14Q398.26,197.77,392.64,198.72Zm8.79,24.77q1.65-.92,1.82-4.69c.13-2.53.19-4.4.19-5.62s0-2.23,0-3,0-1.66-.05-2.52q-.13-4.87-.76-5.57a2.78,2.78,0,0,0-1.19-.87Z"/><path class="cls-2" d="M449.33,225.63q-3.37.51-5.27-2.9a13.51,13.51,0,0,1-6.29,4.55,11.84,11.84,0,0,1-2.29.58q-7,1-10.8-2.85-3.51-3.6-3.95-11.08a3.4,3.4,0,0,0-.66-2.14,7.83,7.83,0,0,0-3.38-1.94c2.61-1.6,4-3.65,4.08-6.17a19.75,19.75,0,0,1,1.31-6.61,14.88,14.88,0,0,1,3.06-4.83q3.67-3.77,10.27-4.74a9.61,9.61,0,0,1,6.27.94,5.62,5.62,0,0,1,1.52,1.25v-7.2c0-2.55-1-3.67-3.08-3.37a3.49,3.49,0,0,0-1.86.85,2,2,0,0,1-.46-1.25,3.07,3.07,0,0,1,.35-1.38,4.46,4.46,0,0,1,1.08-1.33,7.43,7.43,0,0,1,3.94-1.73,18,18,0,0,1,3.71-.25,6.32,6.32,0,0,1,4.11-2.92c2.28-.34,3.41.7,3.41,3.11v25.56q0,2.55,4.05,3.83-4.05,2.44-4.05,5v10.05c.64,1.58,1.56,2.28,2.75,2.1a3.37,3.37,0,0,0,1.86-.84,2.3,2.3,0,0,1,.46,1.52,3,3,0,0,1-.94,2,4.71,4.71,0,0,1-2.83,1.29,5.8,5.8,0,0,1-3.52-.55A5.57,5.57,0,0,1,449.33,225.63Zm-22.8-6.16a1.25,1.25,0,0,0,.47-.9,7.18,7.18,0,0,0-.3-1.84,32.21,32.21,0,0,1-1.36-7.08,30.27,30.27,0,0,1,.13-3.22c.09-.8.21-1.58.37-2.37.28-1.65.57-3.05.86-4.21a8.18,8.18,0,0,0,.3-1.59,1.21,1.21,0,0,0-.47-1.1,13.7,13.7,0,0,0-2.12,4.84q-.72,3-1.19,5.17c-.11.59-.76,1.26-2,2,1.2.38,1.85.85,2,1.41a31.88,31.88,0,0,0,2,6.87A17.59,17.59,0,0,0,426.53,219.47Zm10.71-27.35q-5.31.78-5.3,8.66v14.67c0,4.09,1.33,6.43,4,7a5.8,5.8,0,0,0,2.23.11,4.9,4.9,0,0,0,2-.76,6.31,6.31,0,0,0,1.58-1.42,6.59,6.59,0,0,0,1.42-4.13V199.1c0-4.1-1.23-6.41-3.71-6.92A6.28,6.28,0,0,0,437.24,192.12Zm9.14,24.4c1.11-.59,1.71-2,1.79-4.25,0-.52,0-1.15.05-1.9s0-1.58,0-2.5,0-1.85,0-2.79l.06-2.69c0-.87,0-1.64,0-2.3s0-1.18,0-1.56V198c0-.07,0-.39,0-.95s0-1.27,0-2.11,0-1.73-.05-2.69l-.07-2.8a29.2,29.2,0,0,0-.23-3.89,2.36,2.36,0,0,0-1.63-2.07Z"/><path class="cls-2" d="M492.7,209a3.22,3.22,0,0,1,2.69-1.75,2,2,0,0,1,2.06.83,3.3,3.3,0,0,1,.6,2,6.16,6.16,0,0,1-.63,2.61,9.78,9.78,0,0,1-1.73,2.54,15.61,15.61,0,0,1-2.51,2.17,19.33,19.33,0,0,1-3,1.73,23.11,23.11,0,0,1-6.85,2,17.71,17.71,0,0,1-6.66-.32,13.16,13.16,0,0,1-5.33-2.64q-4.35-3.64-5.32-10.9a4.62,4.62,0,0,0-.76-2.24,8.2,8.2,0,0,0-3.29-2,7.54,7.54,0,0,0,3.69-4.67c.15-.56.27-1.11.36-1.66A18.23,18.23,0,0,1,471.94,186a19.3,19.3,0,0,1,11-5.45,13.51,13.51,0,0,1,10.93,3.06,13.27,13.27,0,0,1,4.79,10.73c0,.16,0,.32,0,.48a2,2,0,0,0,0,.43.47.47,0,0,0,.53.43,2.34,2.34,0,0,1,.6,1.57,2.61,2.61,0,0,1-2.13,2.65c-.35.12-.91.28-1.66.49l-18.74,5.45v3.22a7.25,7.25,0,0,0,2.33,5.86,6.77,6.77,0,0,0,5.55,1.46,11.15,11.15,0,0,0,5.71-2.22,5,5,0,0,0,2-4A4.94,4.94,0,0,0,492.7,209Zm-20.86,4a1.21,1.21,0,0,0,.46-.9,7.18,7.18,0,0,0-.3-1.83,32.51,32.51,0,0,1-1.36-7.15c0-1.37.05-2.45.13-3.23s.21-1.57.37-2.38c.27-1.55.55-2.93.86-4.13a8,8,0,0,0,.3-1.58,1.24,1.24,0,0,0-.46-1.11,13.31,13.31,0,0,0-2.13,4.77q-.73,2.91-1.2,5.11c-.11.62-.76,1.28-2,2,1.2.4,1.85.87,2,1.42a33.43,33.43,0,0,0,2,6.94A15.33,15.33,0,0,0,471.84,213Zm15.05-14v-9.38a4.53,4.53,0,0,0-.87-3.14,3.61,3.61,0,0,0-3-1.38,6.52,6.52,0,0,0-2.49.78,5.31,5.31,0,0,0-1.73,1.65q-1.53,2.24-1.53,6.56v7.74Zm4.91-1.48v-1q0-6.23-1-7.4a2.46,2.46,0,0,0-1-.7v9.74Z"/><path class="cls-1" d="M445.07,150.7a13,13,0,0,0-3.59,1.19c-3,1.52-5.81,5-4.89,8.51a5.34,5.34,0,0,0,4.2,3.9,4.54,4.54,0,0,0,4.73-2.58.16.16,0,0,1,.26-.05,5.82,5.82,0,0,0,6.81,1.09,3,3,0,0,0,1.36-1.43,1.66,1.66,0,0,0-.4-2c-.53-.35-1.32-.31-1.48.4a3.9,3.9,0,0,1-.14.59,1.11,1.11,0,0,1-.79.56,2.75,2.75,0,0,1-2.3-.72,2.09,2.09,0,0,1-.76-1.81,4,4,0,0,1,2.79-3.08c3.47-1.44,6.38-.33,9.44,1.11a.26.26,0,0,0,.36-.31c-1-3.76-6.1-5.12-9.49-5.5A21.19,21.19,0,0,0,445.07,150.7Z"/><path class="cls-1" d="M546.61,176.94a40.89,40.89,0,0,0-8.4-16l-.14-.16c-1.49-1.78-11.83-13.72-29.17-14A36.26,36.26,0,0,0,485.81,155c.3-.49.6-1,.94-1.49,3.11-4.58,6.39-9.23,10.54-12.93a23.71,23.71,0,0,1,7-4.44,14.18,14.18,0,0,1,6.77-1.11,7.82,7.82,0,0,1,5.09,2.71.25.25,0,0,0,.44-.14,12.44,12.44,0,0,1,.26-1.66,2.79,2.79,0,0,1,1.17-1.89c1.67-1.08,4.18.67,5.47,1.69a27.16,27.16,0,0,0,4.29,3.22c2.38,1.22,4.88-.52,4.2-3.53a5.22,5.22,0,0,0-1.52-2.61,24,24,0,0,0-9.82-5.57,20.86,20.86,0,0,0-8.9-.27,32,32,0,0,0-16.17,8.28c-6.84,6.34-10.73,14.86-14.34,23.28l0,.12-.06-.07a29.93,29.93,0,0,0-1.68-3.51c-2.3-3.67-6-6.27-9.78-8.24a45.57,45.57,0,0,0-11.24-4.13,51,51,0,0,0-31.32,2.93c-3.21,1.39-6.23,3.77-9.77,4.23-2.66.34-5.76-.85-6.58-3.4-.73-2.28,1.79-5.71,4-5.43a.36.36,0,0,0,.33-.56,5.1,5.1,0,0,0-4.6-2,7.42,7.42,0,0,0-5.12,3.22,10.2,10.2,0,0,0-1,9.92,7.77,7.77,0,0,0,6.3,5,.34.34,0,0,1,.16.08,22.49,22.49,0,0,1-3.8,1.48,37.13,37.13,0,0,1-12.75,1.33,11.77,11.77,0,0,1-3.24-.7,3.54,3.54,0,0,1-.39-.19,7.26,7.26,0,0,1-2.64-2.88,7.33,7.33,0,0,1-.89-2.85,3.52,3.52,0,0,1,.26-1.14,2.5,2.5,0,0,0-.83.15,1.19,1.19,0,0,0-.59.6c-.36.71-.28,1.65-.85,2.26s-1.48-.18-1.92-.73l-.18-.24a6,6,0,0,1-.93-1.93,7.75,7.75,0,0,1,0-4.4,4.83,4.83,0,0,1,2.15-2.85,12.68,12.68,0,0,1,2.42-.87,1,1,0,0,0,.51-.3c.26-.35-.18-.68-.47-.8a6.88,6.88,0,0,0-4.14-.08c-5.5,1.3-7,7.6-5.5,12.42,1.61,5.24,6.78,8.26,11.9,9.23a28.7,28.7,0,0,0,16.49-2l1.12-.53c-2.47,3.18-4.18,6.84-3.93,10.63a12.85,12.85,0,0,0,11.05,11.92c3.2.36,6.69-.65,8.65-3.19a6,6,0,0,0,1-5.28,1.3,1.3,0,0,0-2.35-.26,4.43,4.43,0,0,1-4.69,2c-2.75-.78-4.25-4-3.93-6.83s2-5.33,3.88-7.5a50.92,50.92,0,0,1,7.41-7.12,41.67,41.67,0,0,1,40.88-6.29,37.56,37.56,0,0,1,9.24,4.74c2.56,1.92,5.13,4.84,5,8.24a5,5,0,0,1-2.85,4.26,3.24,3.24,0,0,1-2.64.08c-.84-.46-.78-1.85-1.2-2.63a2.36,2.36,0,0,0-1.38-1.1,2.68,2.68,0,0,0-1.82.15,2,2,0,0,0-.61.4,5.05,5.05,0,0,0,.64,7.47,8.28,8.28,0,0,0,7.85.2,7.41,7.41,0,0,0,2.79-2.51c1-1.44,1.77-3.07,2.89-4.45a19.87,19.87,0,0,1,5.81-4.57,38.78,38.78,0,0,1,4.25-2.07c7.34-3,16-3.1,23,.82a16.92,16.92,0,0,1,7.45,7.79,11.14,11.14,0,0,1-.7,10.49,6.48,6.48,0,0,1-3.39,2.65,4,4,0,0,1-4-1,2.24,2.24,0,0,1-.42-2.59c.32-.52.92-.86.41-1.88a1.43,1.43,0,0,0-.66-.65,2.7,2.7,0,0,0-2.7.59c-2.69,2.06-3,6.39-1,9.13a8.7,8.7,0,0,0,9.12,2.92,12.1,12.1,0,0,0,7.44-6.48c2.57-5.22,1.81-11.75-1.37-16.61a22.56,22.56,0,0,0-14.22-9.31,31.73,31.73,0,0,0-13.51.28,40.93,40.93,0,0,0-9.58,3.78,34.54,34.54,0,0,0-4.37,2.61c-.08.07-.19,0-.11-.12,3-3.06,13-11.9,28-9.09,16.38,3.09,23.42,17.09,24.14,18.57l.09.19a35.7,35.7,0,0,1,3.8,17,23.39,23.39,0,0,1-3.56,12.39c-2.44,3.61-6.48,6.29-10.84,6.38a8.06,8.06,0,0,1-2.84-.42,4.79,4.79,0,0,1-2.33-1.67c-1.14-1.56-.71-4.24,1.12-4.87,1-.34,2.33-.14,2.82-1.13a1.41,1.41,0,0,0-.07-1.28,2.74,2.74,0,0,0-2.13-1.2,7.91,7.91,0,0,0-8.13,5,9.72,9.72,0,0,0,1.85,9.62,12.7,12.7,0,0,0,9.1,4.15,18.47,18.47,0,0,0,9.8-2.65,26.9,26.9,0,0,0,11.83-15.08A34.75,34.75,0,0,0,546.61,176.94Z"/><circle class="cls-1" cx="240.55" cy="197.93" r="3.06"/><circle class="cls-1" cx="233.06" cy="193.94" r="1.31"/><circle class="cls-1" cx="387.05" cy="176.62" r="4.38"/><circle class="cls-1" cx="470.67" cy="130.07" r="4.38"/><circle class="cls-1" cx="481.04" cy="133.11" r="1.99"/><circle class="cls-1" cx="449.38" cy="132.65" r="2.45"/><circle class="cls-1" cx="131.75" cy="270.38" r="3.06"/><circle class="cls-1" cx="271.46" cy="211.86" r="2.02"/><path class="cls-1" d="M272.82,221.94a3.84,3.84,0,0,1,1.38-.3,6.86,6.86,0,0,1,5.54,2.78,11.57,11.57,0,0,1,2.16,6,17.7,17.7,0,0,1-1.94,9.85,17.46,17.46,0,0,1-6.93,7.19,23.62,23.62,0,0,1-6.23,2.11,1.35,1.35,0,0,0-.7.31c-.92,1,1.1,1.36,1.66,1.36a13.66,13.66,0,0,0,5.16-1,21.86,21.86,0,0,0,5-2.77,18.36,18.36,0,0,0,1.52-1.25,20.13,20.13,0,0,0,6.18-11,17.17,17.17,0,0,0-.75-9.5,13.29,13.29,0,0,0-6.31-7,9.22,9.22,0,0,0-4.91-1A6.24,6.24,0,0,0,269.3,220a4.77,4.77,0,0,0-.6,4.79,3.9,3.9,0,0,0,4.16,2.18,1.65,1.65,0,0,0,.87-.44.77.77,0,0,0,.09-.91c-.29-.4-.9-.28-1.38-.41a1.61,1.61,0,0,1-.71-2.36A2.34,2.34,0,0,1,272.82,221.94Z"/><path class="cls-1" d="M277.5,208.37l-1.18-.88c-2.46-1.76-4.88-3.51-7.84-4.37-2.61-.75-5.92-.59-7.71,1.74a5,5,0,0,0-.74,4.51.29.29,0,0,1-.5.29,5.33,5.33,0,0,1-.38-6.41,6.91,6.91,0,0,1,5.63-2.81,14.53,14.53,0,0,1,6.29,1.58l-.11-.44c-3.4-3.78-6.36-8.08-7.55-13-2.07-8.58,2.95-17.74,11.7-19.92a13.65,13.65,0,0,1,5.51-.26c5.51.91,10.26,5.7,10.7,11.26.25,3.24-1.06,6.73-3.82,8.44a6.35,6.35,0,0,1-7.94-1,.31.31,0,0,1,.28-.51,6.16,6.16,0,0,0,6.8-4.74,7.45,7.45,0,0,0-4.7-8c-3.81-1.5-8.41.17-10.94,3.38-3.6,4.54-3.17,11.25-.95,16.3,3.19,7.26,9.41,12.28,14.26,18.35a39.7,39.7,0,0,1,4.7,7.37,29.32,29.32,0,0,1,3.05,12.81,5.49,5.49,0,0,1-1.15,3.91c-.31.32-.89.55-1.16.19a.93.93,0,0,1-.07-.7c1.27-7.94-1.8-15.78-6.81-21.86A35.09,35.09,0,0,0,277.5,208.37Z"/><path class="cls-1" d="M170.27,220.06a1.8,1.8,0,0,1-1.11.54,1.6,1.6,0,0,1-1.13-.36c-.46-.38-.77-1.27-1.41-1.36a2.23,2.23,0,0,0-1.64.71,3.38,3.38,0,0,0-.74,3.38c.72,2.19,3.06,3.39,5.14,4a25.6,25.6,0,0,0,7,.7,28.14,28.14,0,0,0,24.18-14,34.6,34.6,0,0,0,2.91-6.3,9.85,9.85,0,0,0,.59-5.68c-.5-1.86-2.23-3.52-4.16-3.32a3,3,0,0,0-2.44,2.44.87.87,0,0,1-1.55.4,4,4,0,0,1-.69-3.55,6.48,6.48,0,0,1,4.65-4.14A9,9,0,0,1,210,198.19c1.65,3.52.12,8-1.73,11.56a.25.25,0,0,0,.27.35,5.25,5.25,0,0,1,5.18,1.57,6.85,6.85,0,0,1,1.83,6.48,5,5,0,0,1-2.42,3.28,3.43,3.43,0,0,1-3.4-.14.24.24,0,0,1,.07-.43c1.44-.36,2.18-3.14,1.16-4.39-1.14-1.41-3.39-1.39-5-.52-2.12,1.16-3.43,3.4-5.11,5.06a34.45,34.45,0,0,1-19,9.57,31.83,31.83,0,0,1-8.1.17,16.79,16.79,0,0,1-8.4-2.94A8.54,8.54,0,0,1,161.9,220c.48-3,3.47-5.48,6.41-4.88a3.42,3.42,0,0,1,2.25,4.55A1.57,1.57,0,0,1,170.27,220.06Z"/><path class="cls-1" d="M123.6,285.94a.3.3,0,0,0,0,.6,11,11,0,0,1,5.07,1.69,8.68,8.68,0,0,1,3.93,6.09,9.57,9.57,0,0,1-1.52,6.07,9.81,9.81,0,0,1-4.8,4.13,6.79,6.79,0,0,1-6.18-.64,5.34,5.34,0,0,1-2.19-5.09.43.43,0,0,0-.45-.52c-7.35.57-12.43-6.77-11.94-13.54.69-9.66,9-15.66,17-19.94,9.91-5.28,21.21-10.3,26-21.25,2.78-6.36,2.41-14.33-2.63-19.47-2.14-2.18-5.21-3-8.25-3.22a10,10,0,0,0-5.85,1.24,9.86,9.86,0,0,0-4.22,10.23,8.08,8.08,0,0,0,5.83,6,6.79,6.79,0,0,0,7.44-3.43,11.45,11.45,0,0,1-2.92,1.37,5.87,5.87,0,0,1-6.93-7.84,6.65,6.65,0,0,1,5.6-4,8.37,8.37,0,0,1,6.5,2.58c7.44,7.59.43,19.18-6,24.63-4.93,4.14-10.79,6.74-16.64,9.34-6.16,2.74-12.07,7.61-15.23,13.25-3.85,6.86-3.77,15.86-.46,23A20.19,20.19,0,0,0,116,307.86a15.52,15.52,0,0,0,14.94-2.42c4-3.4,5.74-9.48,3.61-14.31C132.69,287,128,285.12,123.6,285.94Z"/><path class="cls-1" d="M226.69,206.83a1.51,1.51,0,0,0-.18-.36,7.41,7.41,0,0,0-11.62.23c-.8-1.57,2-4,3.57-4.61a11.54,11.54,0,0,1,9.4.83,9.48,9.48,0,0,1,2.46,1.81c2,2.06,2.9,7-.81,7.84a3.15,3.15,0,0,1-3.19-1.15,3,3,0,0,1,.09-3.53A1.21,1.21,0,0,0,226.69,206.83Z"/><path class="cls-1" d="M123.28,254.49a.43.43,0,0,0-.36-.22,1.11,1.11,0,0,0-.44.08c-1,.32-2,.71-3,1.08a21.78,21.78,0,0,1-4.25,1.24,17.77,17.77,0,0,1-6.5-.24,11.26,11.26,0,0,1-5.38-2.69,7.8,7.8,0,0,1-2.47-7,4.47,4.47,0,0,1,1.44-2.65,2.81,2.81,0,0,1,2.89-.49,1.59,1.59,0,0,1,1,1.56c-.06.43-.35.81.26,1.32a.94.94,0,0,0,.61.24,1.91,1.91,0,0,0,1.58-1.13,4.8,4.8,0,0,0-1.89-6.18,5.5,5.5,0,0,0-3.47-.66c0-.13-.08-.27-.13-.39-.85-2-3.71-2.36-5.49-1.18s-2.59,3.39-2.83,5.51a14.77,14.77,0,0,0,14.8,16.43,22,22,0,0,0,4.21-.32,12.14,12.14,0,0,0,1.29-.32c.25-.06.5-.1.74-.17a31.72,31.72,0,0,0,6.93-3.18,1.14,1.14,0,0,0,.35-.26A.41.41,0,0,0,123.28,254.49Z"/><path class="cls-3" d="M558,56.79l4.91,0"/><path class="cls-1" d="M462.16,64.55a1.59,1.59,0,0,1-.18-3.16c23.66-2.77,46.85-4.63,68.91-5.54A1.59,1.59,0,1,1,531,59c-22,.9-45.09,2.76-68.68,5.52Z"/><path class="cls-1" d="M437.29,67.76a1.58,1.58,0,0,1-.22-3.15l3.66-.51a1.58,1.58,0,0,1,.43,3.14l-3.64.5Z"/><path class="cls-1" d="M390.82,75.27a1.58,1.58,0,0,1-.28-3.14c7-1.28,14.12-2.5,21-3.64a1.59,1.59,0,0,1,.51,3.13c-6.9,1.13-14,2.35-21,3.63Z"/><path class="cls-1" d="M265.41,104a1.61,1.61,0,0,1-1.53-1.17,1.58,1.58,0,0,1,1.12-1.94c34.69-9.46,68.76-17.57,101.25-24.1a1.58,1.58,0,1,1,.63,3.1c-32.42,6.52-66.42,14.61-101.05,24.05A1.52,1.52,0,0,1,265.41,104Z"/><path class="cls-1" d="M220.87,116.75a1.58,1.58,0,0,1-.46-3.1c6.44-1.94,13-3.85,19.34-5.69a1.58,1.58,0,1,1,.87,3c-6.37,1.84-12.87,3.75-19.3,5.68A1.41,1.41,0,0,1,220.87,116.75Z"/><path class="cls-1" d="M61.64,171.64a1.58,1.58,0,0,1-.58-3.06c45.34-17.55,90.42-33.41,134-47.13a1.58,1.58,0,1,1,.95,3c-43.5,13.7-88.52,29.54-133.79,47.06A1.65,1.65,0,0,1,61.64,171.64Z"/><path class="cls-4" d="M553.06,109.79l4.93-.2"/><path class="cls-1" d="M14.9,247.08a1.85,1.85,0,0,1-.7-3.56,2304,2304,0,0,1,220.41-77.37c98.58-28.86,190-47.36,271.7-55a1.85,1.85,0,0,1,.34,3.68c-178.81,16.68-365.73,81-491.06,132.09A1.7,1.7,0,0,1,14.9,247.08Z"/><path class="cls-1" d="M50.58,164.82a1.06,1.06,0,0,1-1-.67,1,1,0,0,1,.59-1.37C147.07,125,293.37,75.86,440.24,56.31a1.06,1.06,0,0,1,.27,2.1C293.86,77.92,147.73,127,51,164.75A1.22,1.22,0,0,1,50.58,164.82Z"/><circle class="cls-1" cx="163.7" cy="303.44" r="1.98"/><circle class="cls-1" cx="169.34" cy="301.06" r="1.98"/><circle class="cls-1" cx="498.69" cy="226.84" r="1.98"/><circle class="cls-1" cx="492.99" cy="227.42" r="1.98"/><path class="cls-1" d="M175.29,300.91a1.85,1.85,0,0,1-.65-3.58c21.75-8.22,58.82-20.8,111.92-34.06,61.3-15.31,128.72-27.72,200.38-36.9a1.85,1.85,0,0,1,.47,3.67c-169.62,21.71-274.32,56.71-311.47,70.75A1.82,1.82,0,0,1,175.29,300.91Z"/><path class="cls-1" d="M569.4,49.82h-1.86c-5,0-10-.14-15.07,0-1.88.06-3.76.06-5.65.1q-7,.15-14,.41T518.6,51q-7.22.39-14.42.9T489.56,53q-7.4.63-14.79,1.38c-4.76.47-9.52,1-14.28,1.53h-.12a1.06,1.06,0,0,1-1.05-1.13,1.1,1.1,0,0,1,1-1q7.43-.84,14.87-1.59c4.93-.49,9.85-.94,14.79-1.36s9.73-.79,14.6-1.13,9.61-.63,14.42-.88,9.47-.47,14.21-.65,9.33-.31,14-.41q7.46-.15,14.91-.16h7.22a40.67,40.67,0,0,0,5.73-.4,9.08,9.08,0,0,0,4.83-1.78,3.88,3.88,0,0,0,1.16-2.21.2.2,0,0,1,.37,0,3.58,3.58,0,0,1-.69,4.42,9.27,9.27,0,0,1-5.68,2.11C573.18,49.8,571.29,49.82,569.4,49.82Z"/><path class="cls-1" d="M580.66,53.3a21.74,21.74,0,0,0,8.18-2.65c2.61-1.44,5.21-3.6,5.85-6.65.34-1.59,1.2-3.3,2.71-3.87A3,3,0,0,1,601.16,42c.89,2.48-.54,4.78-2.22,6.51-5.48,5.65-14.15,7.14-21.71,6.06-.62-.09-1-.5-.36-.9a3.58,3.58,0,0,1,1.81-.26A16.41,16.41,0,0,0,580.66,53.3Z"/><path class="cls-1" d="M586,39.79a27.53,27.53,0,0,0-1.8-3.5c-.78-1.51-1.33-3.26-.5-4.92a2.54,2.54,0,0,1,1.38-1.26c1.95-.7,3.36,1.06,4,2.73a12.23,12.23,0,0,1-.08,8.85,11.68,11.68,0,0,1-3.16,4.54.3.3,0,0,1-.47-.35C586.13,43.86,586.83,42.15,586,39.79Z"/></g></g></svg>